{
  "accessors": [
    {
      "bufferView": 2,
      "componentType": 5126,
      "count": 73,
      "max": [
        2.8222410678863525,
        6.3828740119934082,
        4.6426358222961426
      ],
      "min": [
        -3.0857999324798584,
        0.80397099256515503,
        -0.048758998513221741
      ],
      "type": "VEC3"
    },
    {
      "bufferView": 0,
      "componentType": 5125,
      "count": 144,
      "max": [
        72
      ],
      "min": [
        0
      ],
      "type": "SCALAR"
    },
    {
      "bufferView": 2,
      "byteOffset": 876,
      "componentType": 5126,
      "count": 5459,
      "max": [
        3.3481099605560303,
        6.8575692176818848,
        5.0281338691711426
      ],
      "min": [
        -3.2343790531158447,
        0.72019600868225098,
        -0.22649399936199188
      ],
      "type": "VEC3"
    },
    {
      "bufferView": 2,
      "byteOffset": 66384,
      "componentType": 5126,
      "count": 5459,
      "max": [
        0.99871563911437988,
        0.99910873174667358,
        0.99992465972900391
      ],
      "min": [
        -0.99995291233062744,
        -0.99883043766021729,
        -0.99999332427978516
      ],
      "type": "VEC3"
    },
    {
      "bufferView": 3,
      "componentType": 5126,
      "count": 5459,
      "max": [
        0.99965423345565796,
        0.99992430210113525,
        0.99980360269546509,
        1
      ],
      "min": [
        -0.99842327833175659,
        -0.99996304512023926,
        -0.99920123815536499,
        1
      ],
      "type": "VEC4"
    },
    {
      "bufferView": 1,
      "componentType": 5126,
      "count": 5459,
      "max": [
        0.99965298175811768,
        0.93154597282409668
      ],
      "min": [
        0.22702300548553467,
        0.34308499097824097
      ],
      "type": "VEC2"
    },
    {
      "bufferView": 0,
      "byteOffset": 576,
      "componentType": 5125,
      "count": 30960,
      "max": [
        5458
      ],
      "min": [
        0
      ],
      "type": "SCALAR"
    },
    {
      "bufferView": 2,
      "byteOffset": 131892,
      "componentType": 5126,
      "count": 12830,
      "max": [
        1.2947800159454346,
        2.5159618854522705,
        4.902681827545166
      ],
      "min": [
        -0.40107101202011108,
        -0.52259999513626099,
        2.580502986907959
      ],
      "type": "VEC3"
    },
    {
      "bufferView": 2,
      "byteOffset": 285852,
      "componentType": 5126,
      "count": 12830,
      "max": [
        0.99997711181640625,
        0.99989473819732666,
        0.99978154897689819
      ],
      "min": [
        -0.99995577335357666,
        -0.99989116191864014,
        -0.99995732307434082
      ],
      "type": "VEC3"
    },
    {
      "bufferView": 3,
      "byteOffset": 87344,
      "componentType": 5126,
      "count": 12830,
      "max": [
        0.99930334091186523,
        0.99897211790084839,
        0.99989473819732666,
        1
      ],
      "min": [
        -0.99973469972610474,
        -0.99981701374053955,
        -0.99880385398864746,
        -1
      ],
      "type": "VEC4"
    },
    {
      "bufferView": 1,
      "byteOffset": 43672,
      "componentType": 5126,
      "count": 12830,
      "max": [
        0.9872170090675354,
        0.86827397346496582
      ],
      "min": [
        0.00034699999378062785,
        0.00034699999378062785
      ],
      "type": "VEC2"
    },
    {
      "bufferView": 0,
      "byteOffset": 124416,
      "componentType": 5125,
      "count": 71688,
      "max": [
        12829
      ],
      "min": [
        0
      ],
      "type": "SCALAR"
    }
  ],
  "asset": {
    "extras": {
      "author": "Even Topland (https://sketchfab.com/even572)",
      "license": "CC-BY-NC-4.0 (http://creativecommons.org/licenses/by-nc/4.0/)",
      "source": "https://sketchfab.com/3d-models/big-green-aggressive-snake-free-download-e0c3953c4a20416da5aeb58fb5949cc6",
      "title": "Big Green Aggressive Snake Free download"
    },
    "generator": "Sketchfab-7.95.0",
    "version": "2.0"
  },
  "bufferViews": [
    {
      "buffer": 0,
      "byteLength": 411168,
      "byteOffset": 0,
      "name": "floatBufferViews",
      "target": 34963
    },
    {
      "buffer": 0,
      "byteLength": 146312,
      "byteOffset": 411168,
      "byteStride": 8,
      "name": "floatBufferViews",
      "target": 34962
    },
    {
      "buffer": 0,
      "byteLength": 439812,
      "byteOffset": 557480,
      "byteStride": 12,
      "name": "floatBufferViews",
      "target": 34962
    },
    {
      "buffer": 0,
      "byteLength": 292624,
      "byteOffset": 997292,
      "byteStride": 16,
      "name": "floatBufferViews",
      "target": 34962
    }
  ],
  "buffers": [
    {
      "byteLength": 1289916,
      "uri": "scene.bin"
    }
  ],
  "images": [
    {
      "uri": "textures/material_baseColor.png"
    },
    {
      "uri": "textures/material_metallicRoughness.png"
    },
    {
      "uri": "textures/material_normal.png"
    },
    {
      "uri": "textures/Head_baseColor.png"
    },
    {
      "uri": "textures/Head_metallicRoughness.png"
    },
    {
      "uri": "textures/Head_normal.png"
    }
  ],
  "materials": [
    {
      "doubleSided": true,
      "name": "material_0",
      "pbrMetallicRoughness": {
        "baseColorFactor": [
          1,
          1,
          1,
          1
        ],
        "metallicFactor": 0,
        "roughnessFactor": 0.59999999999999998
      }
    },
    {
      "doubleSided": true,
      "name": "material",
      "normalTexture": {
        "index": 2,
        "scale": 1,
        "texCoord": 0
      },
      "pbrMetallicRoughness": {
        "baseColorFactor": [
          1,
          1,
          1,
          1
        ],
        "baseColorTexture": {
          "index": 0,
          "texCoord": 0
        },
        "metallicFactor": 1,
        "metallicRoughnessTexture": {
          "index": 1,
          "texCoord": 0
        },
        "roughnessFactor": 1
      }
    },
    {
      "doubleSided": true,
      "name": "Head",
      "normalTexture": {
        "index": 5,
        "scale": 1,
        "texCoord": 0
      },
      "pbrMetallicRoughness": {
        "baseColorFactor": [
          1,
          1,
          1,
          1
        ],
        "baseColorTexture": {
          "index": 3,
          "texCoord": 0
        },
        "metallicFactor": 1,
        "metallicRoughnessTexture": {
          "index": 4,
          "texCoord": 0
        },
        "roughnessFactor": 1
      }
    }
  ],
  "meshes": [
    {
      "primitives": [
        {
          "attributes": {
            "POSITION": 0
          },
          "indices": 1,
          "material": 0,
          "mode": 1
        }
      ]
    },
    {
      "primitives": [
        {
          "attributes": {
            "NORMAL": 3,
            "POSITION": 2,
            "TANGENT": 4,
            "TEXCOORD_0": 5
          },
          "indices": 6,
          "material": 1,
          "mode": 4
        }
      ]
    },
    {
      "primitives": [
        {
          "attributes": {
            "NORMAL": 8,
            "POSITION": 7,
            "TANGENT": 9,
            "TEXCOORD_0": 10
          },
          "indices": 11,
          "material": 2,
          "mode": 4
        }
      ]
    }
  ],
  "nodes": [
    {
      "children": [
        1
      ],
      "name": "RootNode (gltf orientation matrix)",
      "rotation": [
        -0.70710678118654746,
        -0,
        -0,
        0.70710678118654757
      ]
    },
    {
      "children": [
        2
      ],
      "name": "RootNode (model correction matrix)"
    },
    {
      "children": [
        3,
        4,
        5
      ],
      "name": "SnakeForSketchfab.obj.cleaner.materialmerger.gles"
    },
    {
      "mesh": 0,
      "name": ""
    },
    {
      "mesh": 1,
      "name": ""
    },
    {
      "mesh": 2,
      "name": ""
    }
  ],
  "samplers": [
    {
      "magFilter": 9729,
      "minFilter": 9987,
      "wrapS": 10497,
      "wrapT": 10497
    }
  ],
  "scene": 0,
  "scenes": [
    {
      "name": "OSG_Scene",
      "nodes": [
        0
      ]
    }
  ],
  "textures": [
    {
      "sampler": 0,
      "source": 0
    },
    {
      "sampler": 0,
      "source": 1
    },
    {
      "sampler": 0,
      "source": 2
    },
    {
      "sampler": 0,
      "source": 3
    },
    {
      "sampler": 0,
      "source": 4
    },
    {
      "sampler": 0,
      "source": 5
    }
  ]
}

